# xmcd
#
# Track frame offsets: 
#        182
#        11185
#        25982
#        36445
#        49287
#        62180
#        78002
#        89357
#        100050
#        115370
#        127180
#        138190
#        153695
#        167260
#        176540
#        188022
#        199705
#        211940
#        225180
#        238010
#        250462
#        260080
#        271900
#
# Disc length: 3791 seconds
#
# Revision: 0
# Processed by: cddbd v1.5.2PL0 Copyright (c) Steve Scherf et al.
# Submitted via: ExactAudioCopy v0.90b4
#
DISCID=3f0ecd17
DTITLE=Don Covay - Mercy and See-Saw
DYEAR=1964
DGENRE=Soul
TTITLE0=Mercy, Mercy
TTITLE1=I'll Be Satisfied
TTITLE2=Come On In
TTITLE3=Can't Stay Away
TTITLE4=Can't Fight It Baby
TTITLE5=You're Good For Me
TTITLE6=Take This Hurt Off Me
TTITLE7=Daddy Loves Baby
TTITLE8=Come See About Me
TTITLE9=You Must Believe In Me
TTITLE10=Please Don't Let Me Know
TTITLE11=Just Because
TTITLE12=See-Saw
TTITLE13=The Boomerang
TTITLE14=Everything Gonna Be Everything
TTITLE15=Fat Man
TTITLE16=Preciouse You
TTITLE17=Iron Out The Rough Spots
TTITLE18=Please Do Something
TTITLE19=I Never Get Enough Of Your Love
TTITLE20=The Usual Place
TTITLE21=A Woman's Love
TTITLE22=Sookie Sookie
EXTD=Mercy recorded in NYC in 1964 with Ronald Miller- bass, Bob Bushn
EXTD=ell- guitar, Bernard Purdie- drums\n\nSee-Saw recorded in NYC and
EXTD=Memphis in 1965 with Booker T and the MGs
EXTT0=
EXTT1=
EXTT2=
EXTT3=
EXTT4=
EXTT5=
EXTT6=
EXTT7=
EXTT8=
EXTT9=
EXTT10=
EXTT11=
EXTT12=
EXTT13=
EXTT14=
EXTT15=
EXTT16=
EXTT17=
EXTT18=
EXTT19=
EXTT20=
EXTT21=
EXTT22=
PLAYORDER=
